<?xml version="1.0" encoding="utf-8"?>
<!-- Generator: Adobe Illustrator 19.2.0, SVG Export Plug-In . SVG Version: 6.00 Build 0)  -->
<svg version="1.1" id="Layer_1" xmlns="http://www.w3.org/2000/svg" xmlns:xlink="http://www.w3.org/1999/xlink" x="0px" y="0px"
	 viewBox="0 0 102.1 102.1" style="enable-background:new 0 0 102.1 102.1;" xml:space="preserve">
<metadata><?xpacket begin="﻿" id="W5M0MpCehiHzreSzNTczkc9d"?>
<x:xmpmeta xmlns:x="adobe:ns:meta/" x:xmptk="Adobe XMP Core 5.6-c111 79.158366, 2015/09/25-01:12:00        ">
   <rdf:RDF xmlns:rdf="http://www.w3.org/1999/02/22-rdf-syntax-ns#">
      <rdf:Description rdf:about=""/>
   </rdf:RDF>
</x:xmpmeta>
                                                                                                    
                                                                                                    
                                                                                                    
                                                                                                    
                                                                                                    
                                                                                                    
                                                                                                    
                                                                                                    
                                                                                                    
                                                                                                    
                                                                                                    
                                                                                                    
                                                                                                    
                                                                                                    
                                                                                                    
                                                                                                    
                                                                                                    
                                                                                                    
                                                                                                    
                                                                                                    
                           
<?xpacket end="w"?></metadata>
<style type="text/css">
	.st0{fill:none;stroke:#000000;stroke-width:2;stroke-miterlimit:10;}
</style>
<path class="st0" d="M51,101C23.4,101,1,78.6,1,51C1,23.4,23.5,1,51,1s50,22.5,50,50C101,78.6,78.6,101,51,101z"/>
<g>
	<g>
		<g>
			<path d="M45.2,53.7c0.5-1.6,1.6-4.2,0.2-9.4c-1.5-5.2-3.6-7.2-6.6-7.2c0,0-5.1-0.3-5.5,7.8C32.9,54,36,56.2,37,61.3l7.5-2.2
				C44.1,56.9,44.7,54.8,45.2,53.7z"/>
		</g>
		<g>
			<path d="M45.4,62l-8.1,2.3c0.4,5.2,3,9.5,7.4,8.3C49.3,71.3,47.1,65.1,45.4,62C45.4,62,45.4,62,45.4,62z"/>
		</g>
	</g>
	<g>
		<g>
			<path d="M56.9,45.8c-0.5-1.6-1.6-4.2-0.2-9.4c1.5-5.2,3.6-7.2,6.6-7.2c0,0,5.1-0.3,5.5,7.8C69.2,46,66,48.3,65,53.4l-7.5-2.2
				C57.9,49,57.3,46.9,56.9,45.8z"/>
		</g>
		<g>
			<path d="M56.7,54l8.1,2.3c-0.4,5.2-3,9.5-7.4,8.3C52.7,63.4,54.9,57.2,56.7,54L56.7,54z"/>
		</g>
	</g>
</g>
</svg>
