<?xml version="1.0" encoding="utf-8"?>
<!-- Generator: Adobe Illustrator 19.2.0, SVG Export Plug-In . SVG Version: 6.00 Build 0)  -->
<svg version="1.1" id="Layer_1" xmlns="http://www.w3.org/2000/svg" xmlns:xlink="http://www.w3.org/1999/xlink" x="0px" y="0px"
	 viewBox="0 0 103 103" style="enable-background:new 0 0 103 103;" xml:space="preserve">
<metadata><?xpacket begin="﻿" id="W5M0MpCehiHzreSzNTczkc9d"?>
<x:xmpmeta xmlns:x="adobe:ns:meta/" x:xmptk="Adobe XMP Core 5.6-c111 79.158366, 2015/09/25-01:12:00        ">
   <rdf:RDF xmlns:rdf="http://www.w3.org/1999/02/22-rdf-syntax-ns#">
      <rdf:Description rdf:about=""/>
   </rdf:RDF>
</x:xmpmeta>
                                                                                                    
                                                                                                    
                                                                                                    
                                                                                                    
                                                                                                    
                                                                                                    
                                                                                                    
                                                                                                    
                                                                                                    
                                                                                                    
                                                                                                    
                                                                                                    
                                                                                                    
                                                                                                    
                                                                                                    
                                                                                                    
                                                                                                    
                                                                                                    
                                                                                                    
                                                                                                    
                           
<?xpacket end="w"?></metadata>
<style type="text/css">
	.st0{fill:none;stroke:#000000;stroke-width:3;stroke-linecap:round;stroke-miterlimit:10;}
	.st1{fill:none;stroke:#000000;stroke-width:3;stroke-miterlimit:10;}
</style>
<path class="st0" d="M51.5,1.5c27.6,0,50,22.4,50,50s-22.4,50-50,50s-50-22.4-50-50S23.9,1.5,51.5,1.5z M51.5,1.5
	c27.6,0,50,22.4,50,50s-22.4,50-50,50s-50-22.4-50-50S23.9,1.5,51.5,1.5z"/>
<path class="st0" d="M51.5,1.5c-12.2,0-23.3,4.4-32,11.6v66.4l4-3l4,3l4-3l4,3l4-3l4,3l4-3l4,3l4-3l4,3l4-3l4,3l4-3l4,3l4-3l4,3
	V13.1C74.8,5.9,63.7,1.5,51.5,1.5z"/>
<line class="st1" x1="29.5" y1="64" x2="73.5" y2="64"/>
<line class="st1" x1="29.5" y1="52.5" x2="63.5" y2="52.5"/>
<line class="st1" x1="69.5" y1="52.5" x2="73.5" y2="52.5"/>
<line class="st1" x1="29.5" y1="44.5" x2="57.5" y2="44.5"/>
<line class="st1" x1="69.5" y1="44.5" x2="73.5" y2="44.5"/>
<line class="st1" x1="29.5" y1="36.5" x2="65.5" y2="36.5"/>
<line class="st1" x1="69.5" y1="36.5" x2="73.5" y2="36.5"/>
<line class="st1" x1="29.5" y1="28" x2="63.5" y2="28"/>
<line class="st1" x1="69.5" y1="28" x2="73.5" y2="28"/>
<line class="st1" x1="29.5" y1="20" x2="57.5" y2="20"/>
<line class="st1" x1="69.5" y1="20" x2="73.5" y2="20"/>
<line class="st1" x1="29.5" y1="12" x2="65.5" y2="12"/>
<line class="st1" x1="69.5" y1="12" x2="73.5" y2="12"/>
</svg>
