<?xml version="1.0" encoding="utf-8"?>
<!-- Generator: Adobe Illustrator 19.2.0, SVG Export Plug-In . SVG Version: 6.00 Build 0)  -->
<svg version="1.1" id="Layer_1" xmlns="http://www.w3.org/2000/svg" xmlns:xlink="http://www.w3.org/1999/xlink" x="0px" y="0px"
	 viewBox="0 0 102.1 102.1" style="enable-background:new 0 0 102.1 102.1;" xml:space="preserve">
<metadata><?xpacket begin="﻿" id="W5M0MpCehiHzreSzNTczkc9d"?>
<x:xmpmeta xmlns:x="adobe:ns:meta/" x:xmptk="Adobe XMP Core 5.6-c111 79.158366, 2015/09/25-01:12:00        ">
   <rdf:RDF xmlns:rdf="http://www.w3.org/1999/02/22-rdf-syntax-ns#">
      <rdf:Description rdf:about=""/>
   </rdf:RDF>
</x:xmpmeta>
                                                                                                    
                                                                                                    
                                                                                                    
                                                                                                    
                                                                                                    
                                                                                                    
                                                                                                    
                                                                                                    
                                                                                                    
                                                                                                    
                                                                                                    
                                                                                                    
                                                                                                    
                                                                                                    
                                                                                                    
                                                                                                    
                                                                                                    
                                                                                                    
                                                                                                    
                                                                                                    
                           
<?xpacket end="w"?></metadata>
<style type="text/css">
	.st0{fill:none;stroke:#000000;stroke-width:2.4132;stroke-linecap:round;stroke-miterlimit:10;}
	.st1{fill:none;stroke:#000000;stroke-width:2;stroke-linecap:round;stroke-miterlimit:10;}
	.st2{fill:none;stroke:#000000;stroke-width:2.0921;stroke-miterlimit:10;}
</style>
<line class="st0" x1="11.9" y1="66.2" x2="11.9" y2="55.2"/>
<line class="st1" x1="15.7" y1="66.2" x2="15.7" y2="59.6"/>
<line class="st1" x1="19.5" y1="66.2" x2="19.5" y2="59.6"/>
<line class="st1" x1="23.3" y1="66.2" x2="23.3" y2="59.6"/>
<line class="st1" x1="27.1" y1="66.2" x2="27.1" y2="59.6"/>
<line class="st1" x1="34.8" y1="66.2" x2="34.8" y2="59.6"/>
<line class="st1" x1="38.6" y1="66.2" x2="38.6" y2="59.6"/>
<line class="st1" x1="42.4" y1="66.2" x2="42.4" y2="59.6"/>
<line class="st1" x1="46.2" y1="66.2" x2="46.2" y2="59.6"/>
<line class="st1" x1="53.8" y1="66.2" x2="53.8" y2="59.6"/>
<line class="st1" x1="57.6" y1="66.2" x2="57.6" y2="59.6"/>
<line class="st1" x1="61.4" y1="66.2" x2="61.4" y2="59.6"/>
<line class="st1" x1="65.2" y1="66.2" x2="65.2" y2="59.6"/>
<line class="st1" x1="72.9" y1="66.2" x2="72.9" y2="59.6"/>
<line class="st1" x1="76.7" y1="66.2" x2="76.7" y2="59.6"/>
<line class="st1" x1="80.5" y1="66.2" x2="80.5" y2="59.6"/>
<line class="st1" x1="84.3" y1="66.2" x2="84.3" y2="59.6"/>
<line class="st0" x1="88.1" y1="66.2" x2="88.1" y2="55.2"/>
<line class="st0" x1="69" y1="66.2" x2="69" y2="55.2"/>
<line class="st0" x1="50" y1="66.2" x2="50" y2="55.2"/>
<line class="st0" x1="30.9" y1="66.2" x2="30.9" y2="55.2"/>
<g>
	<path d="M15.3,46.7c0,1.4-0.3,2.4-0.9,3.2S13,51,11.9,51s-1.9-0.4-2.5-1.1s-0.9-1.7-0.9-3.1V45c0-1.4,0.3-2.4,0.9-3.2
		s1.4-1.1,2.5-1.1s1.9,0.4,2.5,1.1s0.9,1.7,0.9,3.1C15.3,44.9,15.3,46.7,15.3,46.7z M13.3,44.7c0-0.8-0.1-1.4-0.3-1.8
		s-0.6-0.6-1.1-0.6s-0.8,0.2-1,0.5c-0.2,0.4-0.3,0.9-0.4,1.7V47c0,0.8,0.1,1.4,0.3,1.8s0.6,0.6,1.1,0.6s0.8-0.2,1-0.6s0.3-1,0.3-1.7
		L13.3,44.7L13.3,44.7z"/>
</g>
<g>
	<path d="M33.1,51h-2v-7.6l-2.4,0.7v-1.6l4.1-1.5H33L33.1,51L33.1,51z"/>
</g>
<g>
	<path d="M53.5,51h-6.8v-1.4l3.2-3.4c0.4-0.5,0.8-0.9,1-1.3s0.3-0.7,0.3-1c0-0.4-0.1-0.8-0.3-1s-0.5-0.4-1-0.4
		c-0.4,0-0.8,0.2-1.1,0.5s-0.4,0.7-0.4,1.2h-2c0-0.6,0.1-1.2,0.4-1.7s0.7-0.9,1.2-1.2s1.1-0.4,1.8-0.4c1,0,1.8,0.2,2.4,0.7
		s0.9,1.2,0.9,2.1c0,0.5-0.1,1-0.4,1.5c-0.3,0.5-0.7,1.1-1.3,1.8l-2.3,2.4h4.3L53.5,51L53.5,51z"/>
</g>
<g>
	<path d="M67.8,45h1.1c0.5,0,0.9-0.1,1.1-0.4c0.2-0.3,0.4-0.6,0.4-1s-0.1-0.7-0.4-0.9s-0.6-0.3-1-0.3s-0.7,0.1-1,0.3
		s-0.4,0.5-0.4,0.8h-2c0-0.5,0.1-1,0.4-1.4s0.7-0.7,1.2-1c0.5-0.2,1.1-0.3,1.7-0.3c1.1,0,1.9,0.3,2.5,0.8s0.9,1.2,0.9,2.1
		c0,0.5-0.1,0.9-0.4,1.3c-0.3,0.4-0.6,0.7-1.1,0.9c0.6,0.2,1,0.5,1.3,0.9s0.4,0.9,0.4,1.4c0,0.9-0.3,1.6-1,2.1
		C70.9,50.7,70,51,69,51s-1.8-0.3-2.4-0.8s-0.9-1.2-0.9-2.1h2c0,0.4,0.1,0.7,0.4,0.9s0.6,0.4,1,0.4c0.5,0,0.8-0.1,1.1-0.4
		s0.4-0.6,0.4-1c0-1-0.5-1.5-1.6-1.5h-1V45H67.8z"/>
</g>
<g>
	<path d="M90.6,47.3h1.1v1.6h-1.1V51h-2v-2.2h-4.1l-0.1-1.2l4.1-6.6h2L90.6,47.3L90.6,47.3z M86.4,47.3h2.2v-3.5L88.5,44L86.4,47.3z
		"/>
</g>
<path class="st2" d="M51,101C23.4,101,1,78.6,1,51C1,23.4,23.5,1,51,1s50,22.5,50,50C101,78.6,78.6,101,51,101z"/>
</svg>
