<?xml version="1.0" encoding="utf-8"?>
<!-- Generator: Adobe Illustrator 19.2.0, SVG Export Plug-In . SVG Version: 6.00 Build 0)  -->
<svg version="1.1" id="Layer_1" xmlns="http://www.w3.org/2000/svg" xmlns:xlink="http://www.w3.org/1999/xlink" x="0px" y="0px"
	 viewBox="0 0 102.1 102.1" style="enable-background:new 0 0 102.1 102.1;" xml:space="preserve">
<metadata><?xpacket begin="﻿" id="W5M0MpCehiHzreSzNTczkc9d"?>
<x:xmpmeta xmlns:x="adobe:ns:meta/" x:xmptk="Adobe XMP Core 5.6-c111 79.158366, 2015/09/25-01:12:00        ">
   <rdf:RDF xmlns:rdf="http://www.w3.org/1999/02/22-rdf-syntax-ns#">
      <rdf:Description rdf:about=""/>
   </rdf:RDF>
</x:xmpmeta>
                                                                                                    
                                                                                                    
                                                                                                    
                                                                                                    
                                                                                                    
                                                                                                    
                                                                                                    
                                                                                                    
                                                                                                    
                                                                                                    
                                                                                                    
                                                                                                    
                                                                                                    
                                                                                                    
                                                                                                    
                                                                                                    
                                                                                                    
                                                                                                    
                                                                                                    
                                                                                                    
                           
<?xpacket end="w"?></metadata>
<style type="text/css">
	.st0{fill:none;stroke:#000000;stroke-width:2.0921;stroke-miterlimit:10;}
</style>
<path d="M71.7,48.6c0-0.2,0-0.2,0-0.4l-2.3-11.9v-0.2c-1.1-3.9-3.6-6.3-6.8-6.3H39.5c-3.2,0-5.7,2.4-6.8,6.3l-2.4,11.6l0,0.4
	c0,0.2,0,0.2,0,0.4c-2.7,1-4.6,3.5-4.6,6.5v5.7c0,3,1.9,5.6,4.6,6.5V70c0,1.3,1.1,2.3,2.3,2.3H35c1.3,0,2.3-1.1,2.3-2.3v-2.3h27.6
	V70c0,1.3,1.1,2.3,2.3,2.3h2.3c1.3,0,2.3-1.1,2.3-2.3v-2.7c2.7-1,4.6-3.5,4.6-6.5v-5.7C76.3,52.1,74.4,49.6,71.7,48.6z M33.8,62
	c-1.9,0-3.4-1.6-3.4-3.4c0-1.9,1.6-3.4,3.4-3.4c1.9,0,3.4,1.6,3.4,3.4C37.3,60.5,35.7,62,33.8,62z M35,48.2l2.2-11
	c0.2-0.9,1-2.9,2.4-2.9h23c1.4,0,2.1,2,2.4,2.9l2,11H35z M68.3,62c-1.9,0-3.4-1.6-3.4-3.4c0-1.9,1.6-3.4,3.4-3.4
	c1.9,0,3.4,1.6,3.4,3.4C71.7,60.5,70.2,62,68.3,62z"/>
<path class="st0" d="M51,101C23.4,101,1,78.6,1,51C1,23.4,23.5,1,51,1s50,22.5,50,50C101,78.6,78.6,101,51,101z"/>
</svg>
