<?xml version="1.0" encoding="utf-8"?>
<!-- Generator: Adobe Illustrator 19.2.0, SVG Export Plug-In . SVG Version: 6.00 Build 0)  -->
<svg version="1.1" id="Layer_1" xmlns="http://www.w3.org/2000/svg" xmlns:xlink="http://www.w3.org/1999/xlink" x="0px" y="0px"
	 viewBox="0 0 102.8 102.8" style="enable-background:new 0 0 102.8 102.8;" xml:space="preserve">
<metadata><?xpacket begin="﻿" id="W5M0MpCehiHzreSzNTczkc9d"?>
<x:xmpmeta xmlns:x="adobe:ns:meta/" x:xmptk="Adobe XMP Core 5.6-c111 79.158366, 2015/09/25-01:12:00        ">
   <rdf:RDF xmlns:rdf="http://www.w3.org/1999/02/22-rdf-syntax-ns#">
      <rdf:Description rdf:about=""/>
   </rdf:RDF>
</x:xmpmeta>
                                                                                                    
                                                                                                    
                                                                                                    
                                                                                                    
                                                                                                    
                                                                                                    
                                                                                                    
                                                                                                    
                                                                                                    
                                                                                                    
                                                                                                    
                                                                                                    
                                                                                                    
                                                                                                    
                                                                                                    
                                                                                                    
                                                                                                    
                                                                                                    
                                                                                                    
                                                                                                    
                           
<?xpacket end="w"?></metadata>
<style type="text/css">
	.st0{fill:none;stroke:#231F20;stroke-width:2.7957;stroke-linecap:round;stroke-linejoin:round;stroke-miterlimit:10;}
</style>
<circle class="st0" cx="51.4" cy="51.4" r="50"/>
<g>
	<path class="st0" d="M53.4,40.3h-33c-1.5,0-1.9-2-0.6-2.7L49,23.9c1.5-0.7,3.3-0.7,4.8,0l29.2,13.8c1.3,0.6,0.9,2.7-0.6,2.7h-4.5"
		/>
	<line class="st0" x1="61.7" y1="40.3" x2="59.7" y2="40.3"/>
	<line class="st0" x1="24.7" y1="70.3" x2="24.7" y2="41"/>
	<line class="st0" x1="77.8" y1="41" x2="77.8" y2="70.3"/>
	<path class="st0" d="M82.5,79.4H20.3c-1.5,0-2.5-1.5-1.9-2.9l1.7-4.2c0.3-0.8,1.1-1.3,1.9-1.3h58.7c0.8,0,1.6,0.5,1.9,1.3l1.7,4.2
		C85,77.9,84,79.4,82.5,79.4z"/>
	<path class="st0" d="M33.1,70.4V50.1c0-2.3,1.9-4.2,4.2-4.2h0c2.3,0,4.2,1.9,4.2,4.2v20.3"/>
	<path class="st0" d="M61.1,70.4V50.1c0-2.3,1.9-4.2,4.2-4.2h0c2.3,0,4.2,1.9,4.2,4.2v20.3"/>
	<path class="st0" d="M47.1,70.4V50.1c0-2.3,1.9-4.2,4.2-4.2h0c2.3,0,4.2,1.9,4.2,4.2v20.3"/>
</g>
</svg>
