<?xml version="1.0" encoding="utf-8"?>
<!-- Generator: Adobe Illustrator 19.2.0, SVG Export Plug-In . SVG Version: 6.00 Build 0)  -->
<svg version="1.1" id="Layer_1" xmlns="http://www.w3.org/2000/svg" xmlns:xlink="http://www.w3.org/1999/xlink" x="0px" y="0px"
	 viewBox="0 0 103 103" style="enable-background:new 0 0 103 103;" xml:space="preserve">
<metadata><?xpacket begin="﻿" id="W5M0MpCehiHzreSzNTczkc9d"?>
<x:xmpmeta xmlns:x="adobe:ns:meta/" x:xmptk="Adobe XMP Core 5.6-c111 79.158366, 2015/09/25-01:12:00        ">
   <rdf:RDF xmlns:rdf="http://www.w3.org/1999/02/22-rdf-syntax-ns#">
      <rdf:Description rdf:about=""/>
   </rdf:RDF>
</x:xmpmeta>
                                                                                                    
                                                                                                    
                                                                                                    
                                                                                                    
                                                                                                    
                                                                                                    
                                                                                                    
                                                                                                    
                                                                                                    
                                                                                                    
                                                                                                    
                                                                                                    
                                                                                                    
                                                                                                    
                                                                                                    
                                                                                                    
                                                                                                    
                                                                                                    
                                                                                                    
                                                                                                    
                           
<?xpacket end="w"?></metadata>
<style type="text/css">
	.st0{fill:none;stroke:#000000;stroke-width:3;stroke-linecap:round;stroke-miterlimit:10;}
</style>
<path class="st0" d="M51.5,1.5c27.6,0,50,22.4,50,50s-22.4,50-50,50s-50-22.4-50-50S23.9,1.5,51.5,1.5z M51.5,1.5
	c27.6,0,50,22.4,50,50s-22.4,50-50,50s-50-22.4-50-50S23.9,1.5,51.5,1.5z"/>
<g>
	<g>
		<path d="M37.2,65.2"/>
		<path d="M68.2,50.5c-2.7,0-5,2.2-5,5s2.2,5,5,5c2.7,0,5-2.2,5-5S70.9,50.5,68.2,50.5z M68.2,57.7c-1.2,0-2.2-1-2.2-2.2
			s1-2.2,2.2-2.2c1.2,0,2.2,1,2.2,2.2S69.4,57.7,68.2,57.7z"/>
		<path d="M34.9,50.5c-2.7,0-5,2.2-5,5s2.2,5,5,5s5-2.2,5-5S37.6,50.5,34.9,50.5z M34.9,57.7c-1.2,0-2.2-1-2.2-2.2s1-2.2,2.2-2.2
			s2.2,1,2.2,2.2S36.1,57.7,34.9,57.7z"/>
		<path d="M77,44.9C77,44.9,77,44.9,77,44.9c-0.7-0.4-1-0.9-1-0.9L65.4,26.3c0,0-0.4-0.8-0.7-1.3c-0.1-0.2-0.4-0.5-0.8-0.5H52
			c-0.3,0-1.3,0-2.7,0c-3.9,0-10.5,0-10.5,0s-0.6,0-1.3,1.2c-0.6,1-9.1,15.7-11,19c-1.4,0.2-2.4,1.6-2.4,3.2v15
			c0,1.8,1.3,3.3,2.9,3.3h2.9v7.2c0,0.9,0.6,1.6,1.3,1.6h4.6c0.7,0,1.3-0.7,1.3-1.6v-7.2H66v7.3c0,0.9,0.6,1.6,1.3,1.6h4.6
			c0.7,0,1.3-0.7,1.3-1.6v-7.3H76c1.6,0,2.9-1.4,2.9-3.3V48C78.9,46.6,78.1,45.4,77,44.9z M39.4,28.2c0,0,0.3-0.7,2-0.7h8.1h1.8
			c0,0,0.1,0,0.2,0h10.3c0.4,0.1,1.1,0.3,1.6,1.1L73,44.7H29.9L39.4,28.2z M76,61c0,1.3-1.1,2.4-2.6,2.4H29.8
			c-1.4,0-2.6-1.1-2.6-2.4V50.1c0-1.3,1.1-2.4,2.6-2.4h43.7c1.4,0,2.6,1.1,2.6,2.4L76,61L76,61z"/>
	</g>
	<path d="M55.9,17.9h-8.5c-1.4,0-1.6,0.8-1.6,1.1v1.5c0,0.3,0.1,1.3,1.3,1.3h8.8c1.1,0,1.3-0.7,1.3-1.1v-1.3
		C57.2,18,56.2,17.9,55.9,17.9z"/>
</g>
</svg>
