<?xml version="1.0" encoding="utf-8"?>
<!-- Generator: Adobe Illustrator 19.2.0, SVG Export Plug-In . SVG Version: 6.00 Build 0)  -->
<svg version="1.1" id="Layer_1" xmlns="http://www.w3.org/2000/svg" xmlns:xlink="http://www.w3.org/1999/xlink" x="0px" y="0px"
	 viewBox="0 0 103 103" style="enable-background:new 0 0 103 103;" xml:space="preserve">
<metadata><?xpacket begin="﻿" id="W5M0MpCehiHzreSzNTczkc9d"?>
<x:xmpmeta xmlns:x="adobe:ns:meta/" x:xmptk="Adobe XMP Core 5.6-c111 79.158366, 2015/09/25-01:12:00        ">
   <rdf:RDF xmlns:rdf="http://www.w3.org/1999/02/22-rdf-syntax-ns#">
      <rdf:Description rdf:about=""/>
   </rdf:RDF>
</x:xmpmeta>
                                                                                                    
                                                                                                    
                                                                                                    
                                                                                                    
                                                                                                    
                                                                                                    
                                                                                                    
                                                                                                    
                                                                                                    
                                                                                                    
                                                                                                    
                                                                                                    
                                                                                                    
                                                                                                    
                                                                                                    
                                                                                                    
                                                                                                    
                                                                                                    
                                                                                                    
                                                                                                    
                           
<?xpacket end="w"?></metadata>
<style type="text/css">
	.st0{fill:none;stroke:#000000;stroke-width:3;stroke-linecap:round;stroke-miterlimit:10;}
</style>
<path class="st0" d="M51.5,1.5c27.6,0,50,22.4,50,50s-22.4,50-50,50s-50-22.4-50-50S23.9,1.5,51.5,1.5z M51.5,1.5
	c27.6,0,50,22.4,50,50s-22.4,50-50,50s-50-22.4-50-50S23.9,1.5,51.5,1.5z"/>
<g>
	<g>
		<rect x="56.6" y="77.6" transform="matrix(0.124 -0.9923 0.9923 0.124 -24.5072 129.6391)" width="9.2" height="2.3"/>
	</g>
	<g>
		<path d="M73.1,36.7H29.9c-2.2,0-3.4-1.2-3.4-3.4v-4.5c0-2.2,1.2-3.4,3.4-3.4h2.5l0.9-4.7c0-2.7,1.7-4.4,4.5-4.4h27.3
			c2.7,0,4.5,1.7,4.5,4.4l0.9,4.7h2.5c2.2,0,3.4,1.2,3.4,3.4v4.5C76.5,35.5,75.2,36.7,73.1,36.7z M29.9,27.6c-0.9,0-1.1,0.2-1.1,1.1
			v4.5c0,0.9,0.2,1.1,1.1,1.1h43.2c0.9,0,1.1-0.2,1.1-1.1v-4.5c0-0.9-0.2-1.1-1.1-1.1h-4.3l-1.4-6.8c0-1.5-0.8-2.3-2.3-2.3H37.9
			c-1.6,0-2.3,0.7-2.3,2.3v0.2l-1.4,6.6H29.9z"/>
	</g>
	<g>
		<rect x="45.8" y="25.4" width="19.3" height="2.3"/>
	</g>
	<g>
		<rect x="41.3" y="25.4" width="2.3" height="2.3"/>
	</g>
	<g>
		<rect x="36.7" y="25.4" width="2.3" height="2.3"/>
	</g>
	<g>
		<g>
			<rect x="63.9" y="41.3" transform="matrix(0.1646 -0.9864 0.9864 0.1646 17.3298 105.287)" width="13.9" height="2.3"/>
		</g>
		<g>
			<path d="M64,86.7H39c-1.5,0-2.3-1.1-2.3-2.2l-2.3-15.8l2.3-0.3l2.3,16h25v-0.1l2.3-15.9l2.3,0.3l-2.3,15.8
				C66.3,85.6,65.5,86.7,64,86.7z"/>
		</g>
		<g>
			<rect x="31.3" y="35.6" transform="matrix(0.9904 -0.1382 0.1382 0.9904 -5.5578 4.8883)" width="2.3" height="13.7"/>
		</g>
		<g>
			<path d="M67.4,69.7H35.6c-1.1,0-2.2-0.9-2.3-2.2l-2.3-17c0-0.3-0.1-1.1,0.5-1.7c0.3-0.3,0.8-0.7,1.8-0.7h36.3
				c0.9,0,1.5,0.3,1.8,0.7c0.3,0.5,0.6,1,0.5,1.7l-2.3,17C69.6,68.8,68.5,69.7,67.4,69.7z M33.3,50.4l2.3,16.9c0,0.1,0,0.1,0.1,0.1
				h31.7v-0.1l2.3-16.9H33.3z"/>
		</g>
	</g>
	<g>
		<path d="M51.5,66.3c-3.7,0-6.8-3.1-6.8-6.8c0-3.7,3.1-6.8,6.8-6.8c3.7,0,6.8,3.1,6.8,6.8C58.3,63.2,55.3,66.3,51.5,66.3z
			 M51.5,54.9c-2.5,0-4.5,2-4.5,4.5c0,2.5,2,4.5,4.5,4.5c2.5,0,4.5-2,4.5-4.5C56.1,57,54,54.9,51.5,54.9z"/>
	</g>
</g>
</svg>
