<svg xmlns="http://www.w3.org/2000/svg" viewBox="0 0 103 103" enable-background="new 0 0 103 103"><style type="text/css">.st0{fill:none;stroke:#000000;stroke-width:3;stroke-linecap:round;stroke-miterlimit:10;}</style><path class="st0" d="M51.5 1.5c27.6 0 50 22.4 50 50s-22.4 50-50 50-50-22.4-50-50 22.4-50 50-50zm0 0c27.6 0 50 22.4 50 50s-22.4 50-50 50-50-22.4-50-50 22.4-50 50-50z"/><path d="M60.3 35.3h9.7v2.2h-9.7zM35.5 35.3h22.7v2.2h-22.7zM43 39.6h4.3v2.2h-4.3zM49.5 39.6h2.2v2.2h-2.2zM30 41.8c-6.6 0-11.9-5.3-11.9-11.9s5.3-11.9 11.9-11.9 11.9 5.3 11.9 11.9h-2.2c0-5.4-4.3-9.7-9.7-9.7s-9.7 4.3-9.7 9.7 4.3 9.7 9.7 9.7c2.9 0 4.8-1.1 5.8-1.9l1.4 1.6c-1.2 1.2-3.6 2.5-7.2 2.5zM22.891 34.433l6.453-5.378 1.408 1.69-6.453 5.378zM26.822 38.252l2.16-8.634 2.134.534-2.16 8.634zM70.1 85h-34.6v-1c0-1.7 2.7-4.3 6.5-4.3h7.6v-24.5l-21.8-26.4h50l-21.7 26.4-.1 24.4h7.6c3.8 0 6.5 2.6 6.5 4.3v1.1zm-31.5-2.1h28.4c-.8-.5-1.8-1.1-3.4-1.1h-9.6l.1-27.5.2-.3 18.9-23h-40.9l19.4 23.4v27.5h-9.7c-1.6-.1-2.8.4-3.4 1z"/></svg>