<?xml version="1.0" encoding="utf-8"?>
<!-- Generator: Adobe Illustrator 19.2.0, SVG Export Plug-In . SVG Version: 6.00 Build 0)  -->
<svg version="1.1" id="Layer_1" xmlns="http://www.w3.org/2000/svg" xmlns:xlink="http://www.w3.org/1999/xlink" x="0px" y="0px"
	 viewBox="0 0 100 100" style="enable-background:new 0 0 100 100;" xml:space="preserve">
<metadata><?xpacket begin="﻿" id="W5M0MpCehiHzreSzNTczkc9d"?>
<x:xmpmeta xmlns:x="adobe:ns:meta/" x:xmptk="Adobe XMP Core 5.6-c111 79.158366, 2015/09/25-01:12:00        ">
   <rdf:RDF xmlns:rdf="http://www.w3.org/1999/02/22-rdf-syntax-ns#">
      <rdf:Description rdf:about=""/>
   </rdf:RDF>
</x:xmpmeta>
                                                                                                    
                                                                                                    
                                                                                                    
                                                                                                    
                                                                                                    
                                                                                                    
                                                                                                    
                                                                                                    
                                                                                                    
                                                                                                    
                                                                                                    
                                                                                                    
                                                                                                    
                                                                                                    
                                                                                                    
                                                                                                    
                                                                                                    
                                                                                                    
                                                                                                    
                                                                                                    
                           
<?xpacket end="w"?></metadata>
<g>
	<path d="M79.5,48.4c0-1.3-1.1-2.4-2.4-2.4h-1V35.4c0-2-1.6-3.6-3.6-3.6h-2.1v-0.2c0-2-1.6-3.6-3.6-3.6H25.4c-2.6,0-4.9,2.2-4.9,4.8
		l0,0l0,0v36.9c0,1.3,1,2.3,2.3,2.3h49.6c2,0,3.6-1.6,3.6-3.6V57.9h1l0,0c1.3,0,2.4-1.1,2.4-2.4L79.5,48.4L79.5,48.4z M66.2,55.9
		c-2.2,0-3.9-1.8-3.9-3.9c0-2.2,1.8-3.9,3.9-3.9H77c0.2,0,0.4,0.2,0.4,0.4l0,0v7c0,0.2-0.2,0.4-0.4,0.4H66.2z M25.4,30h41.2
		c0.9,0,1.6,0.7,1.6,1.6v0.2H22.7C23.2,30.7,24.2,30,25.4,30z M74,68.4c0,0.9-0.7,1.6-1.6,1.6H22.8c-0.2,0-0.3-0.1-0.3-0.3V33.8
		h45.9h0.9h3.1c0.9,0,1.6,0.7,1.6,1.6V46h-1v-1.3c0-0.6-0.4-1-1-1s-1,0.4-1,1V46h-4.8c-3.3,0-5.9,2.7-5.9,5.9c0,3.3,2.7,5.9,5.9,5.9
		H71v1.6c0,0.6,0.4,1,1,1s1-0.4,1-1v-1.6h1V68.4z"/>
	<path d="M66,49c-1.6,0-2.9,1.3-2.9,2.9s1.3,2.9,2.9,2.9s2.9-1.3,2.9-2.9S67.6,49,66,49z M66,52.9c-0.5,0-0.9-0.4-0.9-0.9
		s0.4-0.9,0.9-0.9s0.9,0.4,0.9,0.9C67,52.4,66.5,52.9,66,52.9z"/>
	<path d="M25.1,38c0.5,0,0.9-0.4,1-0.9h0.1c0.6,0,1-0.4,1-1s-0.4-1-1-1h-1.1c-0.6,0-1,0.4-1,1V37C24.1,37.6,24.5,38,25.1,38z"/>
	<path d="M25.1,46c0.6,0,1-0.4,1-1v-2c0-0.6-0.4-1-1-1s-1,0.4-1,1v2C24.1,45.6,24.5,46,25.1,46z"/>
	<path d="M25.1,54c0.6,0,1-0.4,1-1v-2c0-0.6-0.4-1-1-1s-1,0.4-1,1v2C24.1,53.6,24.5,54,25.1,54z"/>
	<path d="M25.1,62c0.6,0,1-0.4,1-1v-2c0-0.6-0.4-1-1-1s-1,0.4-1,1v2C24.1,61.6,24.5,62,25.1,62z"/>
	<path d="M64.2,37.1h2c0.6,0,1-0.4,1-1s-0.4-1-1-1h-2c-0.6,0-1,0.4-1,1S63.6,37.1,64.2,37.1z"/>
	<path d="M71,38.6c0,0.6,0.4,1,1,1s1-0.4,1-1v-1.7c0-0.2,0-0.5-0.1-0.7c-0.2-0.5-0.8-0.8-1.3-0.6C71,35.9,70.8,36.4,71,37V38.6z"/>
	<path d="M72,64.4c-0.6,0-1,0.4-1,1v1.7c-0.1,0.5,0.2,1.1,0.7,1.2c0.1,0,0.2,0,0.3,0c0.4,0,0.8-0.3,1-0.7c0.1-0.2,0.1-0.4,0.1-0.6
		v-1.7C73,64.9,72.6,64.4,72,64.4z"/>
	<path d="M56.2,37.1h2c0.6,0,1-0.4,1-1s-0.4-1-1-1h-2c-0.6,0-1,0.4-1,1S55.6,37.1,56.2,37.1z"/>
	<path d="M48.2,37.1h2c0.6,0,1-0.4,1-1s-0.4-1-1-1h-2c-0.6,0-1,0.4-1,1S47.6,37.1,48.2,37.1z"/>
	<path d="M50.3,67.2h-2c-0.6,0-1,0.4-1,1s0.4,1,1,1h2c0.6,0,1-0.4,1-1S50.9,67.2,50.3,67.2z"/>
	<path d="M26.3,67.2h-0.2c-0.1,0-0.1,0-0.1-0.2c0-0.6-0.4-1-1-1s-1,0.5-1,1c0,1.2,0.9,2.1,2.1,2.1h0.2c0.6,0,1-0.4,1-1
		S26.9,67.2,26.3,67.2z"/>
	<path d="M66.3,67.2h-2c-0.6,0-1,0.4-1,1s0.4,1,1,1h2c0.6,0,1-0.4,1-1S66.9,67.2,66.3,67.2z"/>
	<path d="M58.3,67.2h-2c-0.6,0-1,0.4-1,1s0.4,1,1,1h2c0.6,0,1-0.4,1-1S58.9,67.2,58.3,67.2z"/>
	<path d="M34.3,67.2h-2c-0.6,0-1,0.4-1,1s0.4,1,1,1h2c0.6,0,1-0.4,1-1S34.9,67.2,34.3,67.2z"/>
	<path d="M32.2,37.1h2c0.6,0,1-0.4,1-1s-0.4-1-1-1h-2c-0.6,0-1,0.4-1,1S31.6,37.1,32.2,37.1z"/>
	<path d="M40.2,37.1h2c0.6,0,1-0.4,1-1s-0.4-1-1-1h-2c-0.6,0-1,0.4-1,1S39.6,37.1,40.2,37.1z"/>
	<path d="M42.3,67.2h-2c-0.6,0-1,0.4-1,1s0.4,1,1,1h2c0.6,0,1-0.4,1-1S42.9,67.2,42.3,67.2z"/>
</g>
<g>
	<path d="M50,2.1c26.4,0,47.9,21.5,47.9,47.9S76.4,97.9,50,97.9S2.1,76.4,2.1,50S23.6,2.1,50,2.1 M50,0C22.5,0,0,22.4,0,50
		c0,27.5,22.4,50,50,50c27.5,0,50-22.5,50-50S77.5,0,50,0L50,0z"/>
</g>
</svg>
