<svg xmlns="http://www.w3.org/2000/svg" viewBox="0 0 103 103" enable-background="new 0 0 103 103"><style type="text/css">.st0{fill:none;stroke:#000000;stroke-width:3;stroke-linecap:round;stroke-miterlimit:10;}</style><path class="st0" d="M51.5 1.5c27.6 0 50 22.4 50 50s-22.4 50-50 50-50-22.4-50-50 22.4-50 50-50zm0 0c27.6 0 50 22.4 50 50s-22.4 50-50 50-50-22.4-50-50 22.4-50 50-50z"/><path d="M59.514 83.097l1.141-9.129 2.282.285-1.141 9.129zM73.1 36.7h-43.2c-2.2 0-3.4-1.2-3.4-3.4v-4.5c0-2.2 1.2-3.4 3.4-3.4h2.5l.9-4.7c0-2.7 1.7-4.4 4.5-4.4h27.3c2.7 0 4.5 1.7 4.5 4.4l.9 4.7h2.5c2.2 0 3.4 1.2 3.4 3.4v4.5c.1 2.2-1.2 3.4-3.3 3.4zm-43.2-9.1c-.9 0-1.1.2-1.1 1.1v4.5c0 .9.2 1.1 1.1 1.1h43.2c.9 0 1.1-.2 1.1-1.1v-4.5c0-.9-.2-1.1-1.1-1.1h-4.3l-1.4-6.8c0-1.5-.8-2.3-2.3-2.3h-27.2c-1.6 0-2.3.7-2.3 2.3v.2l-1.4 6.6h-4.3zM45.8 25.4h19.3v2.3h-19.3zM41.3 25.4h2.3v2.3h-2.3zM36.7 25.4h2.3v2.3h-2.3zM68.586 49.054l2.288-13.711 2.269.379-2.288 13.711zM64 86.7h-25c-1.5 0-2.3-1.1-2.3-2.2l-2.3-15.8 2.3-.3 2.3 16h25v-.1l2.3-15.9 2.3.3-2.3 15.8c0 1.1-.8 2.2-2.3 2.2zM30.362 35.821l2.278-.318 1.893 13.568-2.278.318zM67.4 69.7h-31.8c-1.1 0-2.2-.9-2.3-2.2l-2.3-17c0-.3-.1-1.1.5-1.7.3-.3.8-.7 1.8-.7h36.3c.9 0 1.5.3 1.8.7.3.5.6 1 .5 1.7l-2.3 17c0 1.3-1.1 2.2-2.2 2.2zm-34.1-19.3l2.3 16.9c0 .1 0 .1.1.1h31.7v-.1l2.3-16.9h-36.4zM51.5 66.3c-3.7 0-6.8-3.1-6.8-6.8 0-3.7 3.1-6.8 6.8-6.8 3.7 0 6.8 3.1 6.8 6.8 0 3.7-3 6.8-6.8 6.8zm0-11.4c-2.5 0-4.5 2-4.5 4.5s2 4.5 4.5 4.5 4.5-2 4.5-4.5c.1-2.4-2-4.5-4.5-4.5z"/></svg>