<svg xmlns="http://www.w3.org/2000/svg" viewBox="0 0 103 103" enable-background="new 0 0 103 103"><style type="text/css">.st0{fill:none;stroke:#000000;stroke-width:3;stroke-linecap:round;stroke-miterlimit:10;}</style><path class="st0" d="M51.5 1.5c27.6 0 50 22.4 50 50s-22.4 50-50 50-50-22.4-50-50 22.4-50 50-50zm0 0c27.6 0 50 22.4 50 50s-22.4 50-50 50-50-22.4-50-50 22.4-50 50-50z"/><path d="M37.2 65.2"/><path d="M68.2 50.5c-2.7 0-5 2.2-5 5s2.2 5 5 5c2.7 0 5-2.2 5-5s-2.3-5-5-5zm0 7.2c-1.2 0-2.2-1-2.2-2.2s1-2.2 2.2-2.2c1.2 0 2.2 1 2.2 2.2s-1 2.2-2.2 2.2zM34.9 50.5c-2.7 0-5 2.2-5 5s2.2 5 5 5 5-2.2 5-5-2.3-5-5-5zm0 7.2c-1.2 0-2.2-1-2.2-2.2s1-2.2 2.2-2.2 2.2 1 2.2 2.2-1 2.2-2.2 2.2zM77 44.9c-.7-.4-1-.9-1-.9l-10.6-17.7s-.4-.8-.7-1.3c-.1-.2-.4-.5-.8-.5h-25.1s-.6 0-1.3 1.2c-.6 1-9.1 15.7-11 19-1.4.2-2.4 1.6-2.4 3.2v15c0 1.8 1.3 3.3 2.9 3.3h2.9v7.2c0 .9.6 1.6 1.3 1.6h4.6c.7 0 1.3-.7 1.3-1.6v-7.2h28.9v7.3c0 .9.6 1.6 1.3 1.6h4.6c.7 0 1.3-.7 1.3-1.6v-7.3h2.8c1.6 0 2.9-1.4 2.9-3.3v-14.9c0-1.4-.8-2.6-1.9-3.1zm-37.6-16.7s.3-.7 2-.7h20.4c.4.1 1.1.3 1.6 1.1l9.6 16.1h-43.1l9.5-16.5zm36.6 32.8c0 1.3-1.1 2.4-2.6 2.4h-43.6c-1.4 0-2.6-1.1-2.6-2.4v-10.9c0-1.3 1.1-2.4 2.6-2.4h43.7c1.4 0 2.6 1.1 2.6 2.4l-.1 10.9zM55.9 17.9h-8.5c-1.4 0-1.6.8-1.6 1.1v1.5c0 .3.1 1.3 1.3 1.3h8.8c1.1 0 1.3-.7 1.3-1.1v-1.3c0-1.4-1-1.5-1.3-1.5z"/></svg>