<?xml version="1.0" encoding="utf-8"?>
<!-- Generator: Adobe Illustrator 19.2.0, SVG Export Plug-In . SVG Version: 6.00 Build 0)  -->
<svg version="1.1" id="Layer_1" xmlns="http://www.w3.org/2000/svg" xmlns:xlink="http://www.w3.org/1999/xlink" x="0px" y="0px"
	 viewBox="0 0 103 103" style="enable-background:new 0 0 103 103;" xml:space="preserve">
<metadata><?xpacket begin="﻿" id="W5M0MpCehiHzreSzNTczkc9d"?>
<x:xmpmeta xmlns:x="adobe:ns:meta/" x:xmptk="Adobe XMP Core 5.6-c111 79.158366, 2015/09/25-01:12:00        ">
   <rdf:RDF xmlns:rdf="http://www.w3.org/1999/02/22-rdf-syntax-ns#">
      <rdf:Description rdf:about=""/>
   </rdf:RDF>
</x:xmpmeta>
                                                                                                    
                                                                                                    
                                                                                                    
                                                                                                    
                                                                                                    
                                                                                                    
                                                                                                    
                                                                                                    
                                                                                                    
                                                                                                    
                                                                                                    
                                                                                                    
                                                                                                    
                                                                                                    
                                                                                                    
                                                                                                    
                                                                                                    
                                                                                                    
                                                                                                    
                                                                                                    
                           
<?xpacket end="w"?></metadata>
<style type="text/css">
	.st0{fill:none;stroke:#000000;stroke-width:3;stroke-linecap:round;stroke-miterlimit:10;}
</style>
<path class="st0" d="M51.5,1.5c27.6,0,50,22.4,50,50s-22.4,50-50,50s-50-22.4-50-50S23.9,1.5,51.5,1.5z M51.5,1.5
	c27.6,0,50,22.4,50,50s-22.4,50-50,50s-50-22.4-50-50S23.9,1.5,51.5,1.5z"/>
<g>
	<g>
		<rect x="60.3" y="35.3" width="9.7" height="2.2"/>
	</g>
	<g>
		<rect x="35.5" y="35.3" width="22.7" height="2.2"/>
	</g>
	<g>
		<rect x="43" y="39.6" width="4.3" height="2.2"/>
	</g>
	<g>
		<rect x="49.5" y="39.6" width="2.2" height="2.2"/>
	</g>
	<g>
		<path d="M30,41.8c-6.6,0-11.9-5.3-11.9-11.9S23.4,18,30,18s11.9,5.3,11.9,11.9h-2.2c0-5.4-4.3-9.7-9.7-9.7s-9.7,4.3-9.7,9.7
			s4.3,9.7,9.7,9.7c2.9,0,4.8-1.1,5.8-1.9l1.4,1.6C36,40.5,33.6,41.8,30,41.8z"/>
	</g>
	<g>
		<rect x="22.6" y="31.5" transform="matrix(0.7682 -0.6402 0.6402 0.7682 -14.6371 24.7032)" width="8.4" height="2.2"/>
	</g>
	<g>
		<rect x="24.5" y="33.1" transform="matrix(0.2427 -0.9701 0.9701 0.2427 -11.2343 53.9857)" width="8.9" height="2.2"/>
	</g>
	<g>
		<path d="M70.1,85H35.5V84c0-1.7,2.7-4.3,6.5-4.3h7.6V55.2L27.8,28.8h50L56.1,55.2L56,79.6h7.6c3.8,0,6.5,2.6,6.5,4.3V85z
			 M38.6,82.9H67c-0.8-0.5-1.8-1.1-3.4-1.1H54l0.1-27.5l0.2-0.3l18.9-23H32.3l19.4,23.4v27.5h-9.7C40.4,81.8,39.2,82.3,38.6,82.9z"
			/>
	</g>
</g>
</svg>
