<svg xmlns="http://www.w3.org/2000/svg" viewBox="0 0 103 103" enable-background="new 0 0 103 103"><style type="text/css">.st0{fill:none;stroke:#000000;stroke-width:3;stroke-linecap:round;stroke-miterlimit:10;} .st1{fill:none;stroke:#000000;stroke-width:3;stroke-miterlimit:10;}</style><path class="st0" d="M51.5 1.5c27.6 0 50 22.4 50 50s-22.4 50-50 50-50-22.4-50-50 22.4-50 50-50zm0 0c27.6 0 50 22.4 50 50s-22.4 50-50 50-50-22.4-50-50 22.4-50 50-50zM51.5 1.5c-12.2 0-23.3 4.4-32 11.6v66.4l4-3 4 3 4-3 4 3 4-3 4 3 4-3 4 3 4-3 4 3 4-3 4 3 4-3 4 3 4-3 4 3v-66.4c-8.7-7.2-19.8-11.6-32-11.6z"/><path class="st1" d="M29.5 64h44M29.5 52.5h34M69.5 52.5h4M29.5 44.5h28M69.5 44.5h4M29.5 36.5h36M69.5 36.5h4M29.5 28h34M69.5 28h4M29.5 20h28M69.5 20h4M29.5 12h36M69.5 12h4"/></svg>