<svg xmlns="http://www.w3.org/2000/svg" viewBox="0 0 102.8 102.8" enable-background="new 0 0 102.8 102.8"><style type="text/css">.st0{fill:none;stroke:#231F20;stroke-width:2.7957;stroke-linecap:round;stroke-linejoin:round;stroke-miterlimit:10;}</style><circle class="st0" cx="51.4" cy="51.4" r="50"/><path class="st0" d="M53.4 40.3h-33c-1.5 0-1.9-2-.6-2.7l29.2-13.7c1.5-.7 3.3-.7 4.8 0l29.2 13.8c1.3.6.9 2.7-.6 2.7h-4.5M61.7 40.3h-2M24.7 70.3v-29.3M77.8 41v29.3"/><path class="st0" d="M82.5 79.4h-62.2c-1.5 0-2.5-1.5-1.9-2.9l1.7-4.2c.3-.8 1.1-1.3 1.9-1.3h58.7c.8 0 1.6.5 1.9 1.3l1.7 4.2c.7 1.4-.3 2.9-1.8 2.9zM33.1 70.4v-20.3c0-2.3 1.9-4.2 4.2-4.2 2.3 0 4.2 1.9 4.2 4.2v20.3M61.1 70.4v-20.3c0-2.3 1.9-4.2 4.2-4.2 2.3 0 4.2 1.9 4.2 4.2v20.3M47.1 70.4v-20.3c0-2.3 1.9-4.2 4.2-4.2 2.3 0 4.2 1.9 4.2 4.2v20.3"/></svg>