<svg xmlns="http://www.w3.org/2000/svg" viewBox="0 0 103 103" enable-background="new 0 0 103 103"><style type="text/css">.st0{fill:none;stroke:#000000;stroke-width:3;stroke-linecap:round;stroke-miterlimit:10;} .st1{fill:none;stroke:#000000;stroke-width:6;stroke-linecap:round;stroke-linejoin:round;stroke-miterlimit:10;} .st2{fill:none;stroke:#000000;stroke-width:3;stroke-linecap:round;stroke-miterlimit:10;stroke-dasharray:3.0372,10.1241;}</style><path class="st0" d="M51.5 1.5c27.6 0 50 22.4 50 50s-22.4 50-50 50-50-22.4-50-50 22.4-50 50-50zm0 0c27.6 0 50 22.4 50 50s-22.4 50-50 50-50-22.4-50-50 22.4-50 50-50zM51.5 14.6c20.4 0 36.9 16.5 36.9 36.9s-16.5 36.9-36.9 36.9-36.9-16.5-36.9-36.9 16.5-36.9 36.9-36.9zm0 0c20.4 0 36.9 16.5 36.9 36.9s-16.5 36.9-36.9 36.9-36.9-16.5-36.9-36.9 16.5-36.9 36.9-36.9z"/><path class="st1" d="M77.2 63.9l-15-24.8-10.7 18.5-10.7-18.5-15 24.8"/><circle class="st2" cx="51.5" cy="51.5" r="44"/><circle class="st2" cx="51.5" cy="51.5" r="44"/></svg>