<?xml version="1.0" encoding="utf-8"?>
<!-- Generator: Adobe Illustrator 19.2.0, SVG Export Plug-In . SVG Version: 6.00 Build 0)  -->
<svg version="1.1" id="Layer_1" xmlns="http://www.w3.org/2000/svg" xmlns:xlink="http://www.w3.org/1999/xlink" x="0px" y="0px"
	 viewBox="0 0 512 512" style="enable-background:new 0 0 512 512;" xml:space="preserve">
<metadata><?xpacket begin="﻿" id="W5M0MpCehiHzreSzNTczkc9d"?>
<x:xmpmeta xmlns:x="adobe:ns:meta/" x:xmptk="Adobe XMP Core 5.6-c111 79.158366, 2015/09/25-01:12:00        ">
   <rdf:RDF xmlns:rdf="http://www.w3.org/1999/02/22-rdf-syntax-ns#">
      <rdf:Description rdf:about=""/>
   </rdf:RDF>
</x:xmpmeta>
                                                                                                    
                                                                                                    
                                                                                                    
                                                                                                    
                                                                                                    
                                                                                                    
                                                                                                    
                                                                                                    
                                                                                                    
                                                                                                    
                                                                                                    
                                                                                                    
                                                                                                    
                                                                                                    
                                                                                                    
                                                                                                    
                                                                                                    
                                                                                                    
                                                                                                    
                                                                                                    
                           
<?xpacket end="w"?></metadata>
<style type="text/css">
	.st0{fill:#DB6934;}
	.st1{opacity:0.3;enable-background:new    ;}
	.st2{fill:#FFFFFF;}
</style>
<g>
	<circle class="st0" cx="256" cy="256" r="256"/>
	<path class="st1" d="M136,168l232-1l13,10v162L275.7,511.3c-6.5,0.5-13.1,0.7-19.7,0.7C114.6,512,0,397.4,0,256c0-0.3,0-0.6,0-0.8
		L136,168z"/>
	<path class="st2" d="M384,180.3c-0.6,12.8,0,153,0,153s-3.1,15-16.4,15c-44.9,0-202.8,2-221.8,1.7c-17.6-0.2-17.8-16.6-17.8-16.6
		V182c-0.5-17.2,21.6-18.3,21.6-18.3l217.8-1.7C367.4,162,384.6,167.5,384,180.3z M377.6,186.3c0,0-3.7-18-18.9-17.1
		c-16.1,10.6-102.6,74.4-102.6,74.4l-102.6-72.9c0,0-19.5-0.9-19,15.5c-0.3,14.5,0,145.7,0,145.7s4.4,11.4,25.3,10.9l1.6-127.1
		l94.7,63.6l93.2-62l1.6,125.6c22.8,0,26.8-10.9,26.8-10.9V186.3z"/>
</g>
</svg>
