<?xml version="1.0" encoding="utf-8"?>
<!-- Generator: Adobe Illustrator 19.2.0, SVG Export Plug-In . SVG Version: 6.00 Build 0)  -->
<svg version="1.1" id="Layer_1" xmlns="http://www.w3.org/2000/svg" xmlns:xlink="http://www.w3.org/1999/xlink" x="0px" y="0px"
	 viewBox="0 0 512 512" style="enable-background:new 0 0 512 512;" xml:space="preserve">
<metadata><?xpacket begin="﻿" id="W5M0MpCehiHzreSzNTczkc9d"?>
<x:xmpmeta xmlns:x="adobe:ns:meta/" x:xmptk="Adobe XMP Core 5.6-c111 79.158366, 2015/09/25-01:12:00        ">
   <rdf:RDF xmlns:rdf="http://www.w3.org/1999/02/22-rdf-syntax-ns#">
      <rdf:Description rdf:about=""/>
   </rdf:RDF>
</x:xmpmeta>
                                                                                                    
                                                                                                    
                                                                                                    
                                                                                                    
                                                                                                    
                                                                                                    
                                                                                                    
                                                                                                    
                                                                                                    
                                                                                                    
                                                                                                    
                                                                                                    
                                                                                                    
                                                                                                    
                                                                                                    
                                                                                                    
                                                                                                    
                                                                                                    
                                                                                                    
                                                                                                    
                           
<?xpacket end="w"?></metadata>
<style type="text/css">
	.st0{fill:#368CBA;}
	.st1{opacity:0.3;enable-background:new    ;}
	.st2{fill:#FFFFFF;}
</style>
<g>
	<circle class="st0" cx="256" cy="256" r="256"/>
	<path class="st1" d="M0.8,236C0.3,242.6,0,249.3,0,256c0,141.4,114.6,256,256,256c7.7,0,15.3-0.3,22.7-1l93.6-159.4
		c0,0,2.7-105.5-48.4-158.6c-52.4-54.5-158.5-56.6-158.5-56.6L0.8,236z"/>
	<path class="st2" d="M384,312.4c0,39.5-32.1,71.6-71.6,71.6c-12.2,0-34.3-8.5-34.3-8.5c-7.6,1.5-15.4,2.3-23.5,2.3
		c-67,0-121.3-54.3-121.3-121.3c0-8.2,0.8-16.2,2.4-24c0,0-7.7-21.3-7.7-32.8c0-39.5,32.1-71.6,71.6-71.6c12.5,0,34.6,8.9,34.6,8.9
		c6.6-1.1,13.5-1.7,20.4-1.7c67,0,121.3,54.3,121.3,121.3c0,6.7-0.5,13.3-1.6,19.7C374.4,276.1,384,299.3,384,312.4z M279.8,215
		c9.6,8.9,17.1,16.5,26,9c11.4-9.5-4.8-46-59.2-43c-68.2,3.7-68.4,78.2-8.3,85.7c24.9,3.1,45,8.1,46.7,23.3
		c1.2,10-33.2,36.8-63.9-0.8c-11.3-14.9-34.1-4.2-22.6,19.3c10.1,20.6,92.1,45.4,116.4-9.4c11.5-26-11.5-53.9-61-58.1
		c-8.9-0.8-25.3-1.7-28.6-19.4C222.2,205.3,261.4,198,279.8,215z"/>
</g>
</svg>
