<?xml version="1.0" encoding="utf-8"?>
<!-- Generator: Adobe Illustrator 19.2.0, SVG Export Plug-In . SVG Version: 6.00 Build 0)  -->
<svg version="1.1" id="Layer_1" xmlns="http://www.w3.org/2000/svg" xmlns:xlink="http://www.w3.org/1999/xlink" x="0px" y="0px"
	 viewBox="0 0 512 512" style="enable-background:new 0 0 512 512;" xml:space="preserve">
<metadata><?xpacket begin="﻿" id="W5M0MpCehiHzreSzNTczkc9d"?>
<x:xmpmeta xmlns:x="adobe:ns:meta/" x:xmptk="Adobe XMP Core 5.6-c111 79.158366, 2015/09/25-01:12:00        ">
   <rdf:RDF xmlns:rdf="http://www.w3.org/1999/02/22-rdf-syntax-ns#">
      <rdf:Description rdf:about=""/>
   </rdf:RDF>
</x:xmpmeta>
                                                                                                    
                                                                                                    
                                                                                                    
                                                                                                    
                                                                                                    
                                                                                                    
                                                                                                    
                                                                                                    
                                                                                                    
                                                                                                    
                                                                                                    
                                                                                                    
                                                                                                    
                                                                                                    
                                                                                                    
                                                                                                    
                                                                                                    
                                                                                                    
                                                                                                    
                                                                                                    
                           
<?xpacket end="w"?></metadata>
<style type="text/css">
	.st0{fill:#35DB72;}
	.st1{opacity:0.3;enable-background:new    ;}
	.st2{fill:#FFFFFF;}
</style>
<g>
	<circle class="st0" cx="256" cy="256" r="256"/>
	<path class="st1" d="M0.6,273.7c8.9,130,114.9,233.4,246,238.1l115.8-184.1c0,0,48.5-95.5-21.5-161.7
		c-61.4-58.1-151.4-17.9-151.4-17.9L0.6,273.7z"/>
	<path class="st2" d="M257.7,382.7c-23.6,0-45.7-6.4-64.7-17.6c0,0-37.2,11.3-55.8,17c-13.2,4-6.6-8-6.6-8l17.9-53.1
		c-11.5-19.1-18.1-41.4-18.1-65.3c0-70.1,57-126.9,127.3-126.9C328,129,385,185.8,385,255.9S328,382.7,257.7,382.7z M258.1,149.1
		c-58.5,0-105.9,47.2-105.9,105.5c0,24,8.1,46.2,21.6,63.9l-15.6,41.6l42.6-16.7c16.5,10.6,36.1,16.7,57.2,16.7
		c58.5,0,105.9-47.2,105.9-105.5S316.6,149.1,258.1,149.1z M222.2,295.2c-58.1-57.8-33.9-85.4-12.3-99.9c7.6-0.5,13.3-1.6,15.3,1.6
		c2.9,5.7,11,25.8,13.7,32.2c1.8,4.4-11,11.7-11.3,16.1c-0.5,8.7,22.2,36.9,48.3,43.5c5.9,1.2,12.2-18.7,18.5-16.9
		c7.1,2,25.7,11,31.4,13.7c3.3,1.6-1.7,16.4-4,21C308.5,332.6,252.3,325.1,222.2,295.2z"/>
</g>
</svg>
