<?xml version="1.0" standalone="no"?>
<!DOCTYPE svg PUBLIC "-//W3C//DTD SVG 20010904//EN"
 "http://www.w3.org/TR/2001/REC-SVG-20010904/DTD/svg10.dtd">
<svg version="1.0" xmlns="http://www.w3.org/2000/svg"
 width="16.000000pt" height="16.000000pt" viewBox="0 0 16.000000 16.000000"
 preserveAspectRatio="xMidYMid meet">
<metadata>
Created by potrace 1.11, written by Peter Selinger 2001-2013
</metadata>
<g transform="translate(0.000000,16.000000) scale(0.010738,-0.010738)"
fill="#000000" stroke="none">
<path d="M622 1382 c-7 -5 -31 -40 -54 -78 -65 -108 -62 -125 47 -316 50 -86
98 -161 107 -167 25 -15 42 -5 69 41 13 23 31 53 39 67 116 197 132 232 127
269 -5 39 -68 158 -95 180 -18 14 -219 17 -240 4z"/>
<path d="M207 1118 c-19 -29 -46 -76 -60 -104 l-26 -51 45 -79 c73 -130 58
-124 309 -124 136 0 216 4 220 10 7 11 -184 350 -212 379 -13 12 -42 17 -129
19 l-113 4 -34 -54z"/>
<path d="M1020 1163 c-23 -10 -35 -24 -80 -103 -24 -41 -53 -91 -64 -111 -12
-20 -38 -67 -59 -103 -21 -36 -35 -71 -32 -76 4 -6 89 -10 219 -10 198 0 215
1 239 20 31 24 109 157 109 185 0 11 -14 44 -31 73 -17 29 -31 56 -31 59 0 3
-11 21 -26 40 l-25 33 -102 -1 c-56 0 -109 -3 -117 -6z"/>
<path d="M254 720 c-12 -5 -30 -21 -41 -37 -41 -59 -90 -159 -85 -173 7 -22
83 -152 100 -172 13 -15 32 -18 122 -18 93 0 111 3 133 20 14 11 29 30 33 42
3 12 22 45 40 74 19 29 34 56 34 60 0 4 6 15 14 23 7 9 31 49 51 88 55 105 58
103 -184 102 -108 0 -206 -4 -217 -9z"/>
<path d="M803 719 c-18 -18 -17 -23 26 -97 21 -37 51 -89 66 -117 55 -101 108
-175 129 -181 11 -2 66 -4 121 -2 l99 3 27 40 c15 22 41 66 58 99 l31 58 -35
68 c-20 36 -49 82 -64 101 l-29 34 -208 3 c-158 2 -212 0 -221 -9z"/>
<path d="M722 678 c-5 -7 -36 -58 -67 -113 -32 -55 -69 -118 -82 -140 -65
-109 -66 -135 -8 -235 61 -104 53 -100 176 -100 l108 0 24 33 c40 53 87 148
87 176 0 15 -8 42 -18 61 -46 88 -96 176 -108 191 -8 8 -14 19 -14 23 0 13
-70 116 -79 116 -5 0 -13 -6 -19 -12z"/>
</g>
</svg>
