<?xml version="1.0" encoding="utf-8"?>
<!-- Generator: Adobe Illustrator 19.2.0, SVG Export Plug-In . SVG Version: 6.00 Build 0)  -->
<svg version="1.1" id="Layer_1" xmlns="http://www.w3.org/2000/svg" xmlns:xlink="http://www.w3.org/1999/xlink" x="0px" y="0px"
	 viewBox="0 0 512 512" style="enable-background:new 0 0 512 512;" xml:space="preserve">
<metadata><?xpacket begin="﻿" id="W5M0MpCehiHzreSzNTczkc9d"?>
<x:xmpmeta xmlns:x="adobe:ns:meta/" x:xmptk="Adobe XMP Core 5.6-c111 79.158366, 2015/09/25-01:12:00        ">
   <rdf:RDF xmlns:rdf="http://www.w3.org/1999/02/22-rdf-syntax-ns#">
      <rdf:Description rdf:about=""/>
   </rdf:RDF>
</x:xmpmeta>
                                                                                                    
                                                                                                    
                                                                                                    
                                                                                                    
                                                                                                    
                                                                                                    
                                                                                                    
                                                                                                    
                                                                                                    
                                                                                                    
                                                                                                    
                                                                                                    
                                                                                                    
                                                                                                    
                                                                                                    
                                                                                                    
                                                                                                    
                                                                                                    
                                                                                                    
                                                                                                    
                           
<?xpacket end="w"?></metadata>
<style type="text/css">
	.st0{fill:#59B2FF;}
	.st1{opacity:0.3;enable-background:new    ;}
	.st2{fill:#FFFFFF;}
</style>
<circle id="circle" class="st0" cx="256" cy="256" r="256"/>
<path class="st1" d="M310,136H202c-2.6,0-5.1,0.7-7.3,1.8l-0.2-0.3L0.2,265.9c4.9,129.7,106.3,234.6,234.4,245.2l89.1-142.8l0,0
	c1.5-2.4,2.4-5.3,2.4-8.3V152C326,143.2,318.8,136,310,136z"/>
<path class="st2" d="M310,136H202c-8.8,0-16,7.2-16,16v208c0,8.8,7.2,16,16,16h108c8.8,0,16-7.2,16-16V152
	C326,143.2,318.8,136,310,136z M240,150h32c2.4,0,4,2,4,4c0,2.4-1.6,4-4,4h-32c-2,0-4-1.6-4-4C236,152,238,150,240,150z
	 M255.6,367.2c-4.4,0-8-3.6-8-8s3.6-8,8-8s8,3.6,8,8S260,367.2,255.6,367.2z M314,340H198V172h116V340z"/>
</svg>
