<?xml version="1.0" encoding="utf-8"?>
<!-- Generator: Adobe Illustrator 19.2.0, SVG Export Plug-In . SVG Version: 6.00 Build 0)  -->
<svg version="1.1" id="Layer_1" xmlns="http://www.w3.org/2000/svg" xmlns:xlink="http://www.w3.org/1999/xlink" x="0px" y="0px"
	 viewBox="0 0 512 512" style="enable-background:new 0 0 512 512;" xml:space="preserve">
<metadata><?xpacket begin="﻿" id="W5M0MpCehiHzreSzNTczkc9d"?>
<x:xmpmeta xmlns:x="adobe:ns:meta/" x:xmptk="Adobe XMP Core 5.6-c111 79.158366, 2015/09/25-01:12:00        ">
   <rdf:RDF xmlns:rdf="http://www.w3.org/1999/02/22-rdf-syntax-ns#">
      <rdf:Description rdf:about=""/>
   </rdf:RDF>
</x:xmpmeta>
                                                                                                    
                                                                                                    
                                                                                                    
                                                                                                    
                                                                                                    
                                                                                                    
                                                                                                    
                                                                                                    
                                                                                                    
                                                                                                    
                                                                                                    
                                                                                                    
                                                                                                    
                                                                                                    
                                                                                                    
                                                                                                    
                                                                                                    
                                                                                                    
                                                                                                    
                                                                                                    
                           
<?xpacket end="w"?></metadata>
<style type="text/css">
	.st0{fill:#A66EDB;}
	.st1{opacity:0.3;enable-background:new    ;}
	.st2{fill:#FFFFFF;}
</style>
<g>
	<circle class="st0" cx="256" cy="256" r="256"/>
	<path class="st1" d="M286.9,510.2c-10.1,1.2-20.4,1.8-30.9,1.8C114.6,512,0,397.4,0,256c0-7.6,0.3-15,1-22.4l156.7-95.8L188,177
		l67-48l81,35l43,94l-49,72l45.7,25.8L286.9,510.2z"/>
	<path class="st2" d="M270.1,158.5c-11.2,0-5.8,14.7-1.1,14.7c53.8,0,67.4,56.7,67.4,70.6c0,7.5,13.7,7.4,13.7,1.1
		C350.1,184.7,301.6,158.5,270.1,158.5z M260.7,142.8c-10.1-0.2-11.2-14.7-1.1-14.7c37.8,0,120,31.5,120,125.3
		c0,12.8-13.5,11.7-13.7,1.1C364.3,172.3,294.2,143.3,260.7,142.8z M279.6,189.1c-10.6,0-9,13.7-2.1,13.7c14.9,0,29.5,14,29.5,29.5
		c0,6.9,12.6,9,12.6,1.1C319.6,206.7,300.9,189.1,279.6,189.1z M313.3,283.9c-11.7,1.9-13.6,25-28.4,27.4
		c-25.8,4.1-87.1-48-82.1-82.1c2.3-15.4,31.5-20,27.4-31.6c-4.4-12.3-35.1-50.9-42.1-60c-14.5-18.7-61.3,17.4-57.9,41.1
		c2.4,16.6,33.1,77.1,78.9,123.2c45.2,45.4,104.2,74.1,121,81.1c22.7,9.4,69-42.4,45.3-57.9C351.9,309.6,323.6,282.2,313.3,283.9z"
		/>
</g>
</svg>
